<svg xmlns="http://www.w3.org/2000/svg" xmlns:xlink="http://www.w3.org/1999/xlink" contentStyleType="text/css" data-diagram-type="CLASS" height="343px" preserveAspectRatio="none" style="width:1141px;height:343px;background:#FFFFFF;" version="1.1" viewBox="0 0 1141 343" width="1141px" zoomAndPan="magnify"><defs/><g><!--cluster Presentation--><g class="cluster" data-entity="Presentation" data-source-line="1" data-uid="ent0002" id="cluster_Presentation"><path d="M8.5,6 L111.1709,6 A3.75,3.75 0 0 1 113.6709,8.5 L120.6709,28.2969 L391.5,28.2969 A2.5,2.5 0 0 1 394,30.7969 L394,102.5 A2.5,2.5 0 0 1 391.5,105 L8.5,105 A2.5,2.5 0 0 1 6,102.5 L6,8.5 A2.5,2.5 0 0 1 8.5,6" fill="none" style="stroke:#000000;stroke-width:1.5;"/><line style="stroke:#000000;stroke-width:1.5;" x1="6" x2="120.6709" y1="28.2969" y2="28.2969"/><text fill="#000000" font-family="sans-serif" font-size="14" font-weight="bold" lengthAdjust="spacing" textLength="101.6709" x="10" y="20.9951">Presentation</text></g><!--cluster Application--><g class="cluster" data-entity="Application" data-source-line="6" data-uid="ent0005" id="cluster_Application"><path d="M420.5,6 L510.7979,6 A3.75,3.75 0 0 1 513.2979,8.5 L520.2979,28.2969 L796.5,28.2969 A2.5,2.5 0 0 1 799,30.7969 L799,210.5 A2.5,2.5 0 0 1 796.5,213 L420.5,213 A2.5,2.5 0 0 1 418,210.5 L418,8.5 A2.5,2.5 0 0 1 420.5,6" fill="none" style="stroke:#000000;stroke-width:1.5;"/><line style="stroke:#000000;stroke-width:1.5;" x1="418" x2="520.2979" y1="28.2969" y2="28.2969"/><text fill="#000000" font-family="sans-serif" font-size="14" font-weight="bold" lengthAdjust="spacing" textLength="89.2979" x="422" y="20.9951">Application</text></g><!--cluster Domain--><g class="cluster" data-entity="Domain" data-source-line="12" data-uid="ent0009" id="cluster_Domain"><path d="M825.5,6 L886.54,6 A3.75,3.75 0 0 1 889.04,8.5 L896.04,28.2969 L1131.5,28.2969 A2.5,2.5 0 0 1 1134,30.7969 L1134,102.5 A2.5,2.5 0 0 1 1131.5,105 L825.5,105 A2.5,2.5 0 0 1 823,102.5 L823,8.5 A2.5,2.5 0 0 1 825.5,6" fill="none" style="stroke:#000000;stroke-width:1.5;"/><line style="stroke:#000000;stroke-width:1.5;" x1="823" x2="896.04" y1="28.2969" y2="28.2969"/><text fill="#000000" font-family="sans-serif" font-size="14" font-weight="bold" lengthAdjust="spacing" textLength="60.04" x="827" y="20.9951">Domain</text></g><!--cluster Infrastructure--><g class="cluster" data-entity="Infrastructure" data-source-line="17" data-uid="ent0012" id="cluster_Infrastructure"><path d="M400.5,237 L512.3721,237 A3.75,3.75 0 0 1 514.8721,239.5 L521.8721,259.2969 L1127.5,259.2969 A2.5,2.5 0 0 1 1130,261.7969 L1130,333.5 A2.5,2.5 0 0 1 1127.5,336 L400.5,336 A2.5,2.5 0 0 1 398,333.5 L398,239.5 A2.5,2.5 0 0 1 400.5,237" fill="none" style="stroke:#000000;stroke-width:1.5;"/><line style="stroke:#000000;stroke-width:1.5;" x1="398" x2="521.8721" y1="259.2969" y2="259.2969"/><text fill="#000000" font-family="sans-serif" font-size="14" font-weight="bold" lengthAdjust="spacing" textLength="110.8721" x="402" y="251.9951">Infrastructure</text></g><!--cluster Database--><g class="cluster" data-entity="Database" data-source-line="24" data-uid="ent0017" id="cluster_Database"><path d="M190.5,237 L266.0049,237 A3.75,3.75 0 0 1 268.5049,239.5 L275.5049,259.2969 L371.5,259.2969 A2.5,2.5 0 0 1 374,261.7969 L374,333.5 A2.5,2.5 0 0 1 371.5,336 L190.5,336 A2.5,2.5 0 0 1 188,333.5 L188,239.5 A2.5,2.5 0 0 1 190.5,237" fill="none" style="stroke:#000000;stroke-width:1.5;"/><line style="stroke:#000000;stroke-width:1.5;" x1="188" x2="275.5049" y1="259.2969" y2="259.2969"/><text fill="#000000" font-family="sans-serif" font-size="14" font-weight="bold" lengthAdjust="spacing" textLength="74.5049" x="192" y="251.9951">Database</text></g><!--class WeatherHandler--><g class="entity" data-entity="WeatherHandler" data-source-line="2" data-uid="ent0003" id="entity_WeatherHandler"><rect fill="#F1F1F1" height="48" rx="2.5" ry="2.5" style="stroke:#181818;stroke-width:0.5;" width="146.8916" x="231.55" y="41"/><ellipse cx="246.55" cy="57" fill="#ADD1B2" rx="11" ry="11" style="stroke:#181818;stroke-width:1;"/><path d="M249.5188,62.6406 Q248.9406,62.9375 248.3,63.0781 Q247.6594,63.2344 246.9563,63.2344 Q244.4563,63.2344 243.1281,61.5938 Q241.8156,59.9375 241.8156,56.8125 Q241.8156,53.6875 243.1281,52.0313 Q244.4563,50.375 246.9563,50.375 Q247.6594,50.375 248.3,50.5313 Q248.9563,50.6875 249.5188,50.9844 L249.5188,53.7031 Q248.8938,53.125 248.3,52.8594 Q247.7063,52.5781 247.0813,52.5781 Q245.7375,52.5781 245.05,53.6563 Q244.3625,54.7188 244.3625,56.8125 Q244.3625,58.9063 245.05,59.9844 Q245.7375,61.0469 247.0813,61.0469 Q247.7063,61.0469 248.3,60.7813 Q248.8938,60.5 249.5188,59.9219 L249.5188,62.6406 Z " fill="#000000"/><text fill="#000000" font-family="sans-serif" font-size="14" lengthAdjust="spacing" textLength="114.8916" x="260.55" y="61.8467">WeatherHandler</text><line style="stroke:#181818;stroke-width:0.5;" x1="232.55" x2="377.4416" y1="73" y2="73"/><line style="stroke:#181818;stroke-width:0.5;" x1="232.55" x2="377.4416" y1="81" y2="81"/></g><!--class SubscriptionHandler--><g class="entity" data-entity="SubscriptionHandler" data-source-line="3" data-uid="ent0004" id="entity_SubscriptionHandler"><rect fill="#F1F1F1" height="48" rx="2.5" ry="2.5" style="stroke:#181818;stroke-width:0.5;" width="174.1123" x="21.94" y="41"/><ellipse cx="36.94" cy="57" fill="#ADD1B2" rx="11" ry="11" style="stroke:#181818;stroke-width:1;"/><path d="M39.9088,62.6406 Q39.3306,62.9375 38.69,63.0781 Q38.0494,63.2344 37.3463,63.2344 Q34.8463,63.2344 33.5181,61.5938 Q32.2056,59.9375 32.2056,56.8125 Q32.2056,53.6875 33.5181,52.0313 Q34.8463,50.375 37.3463,50.375 Q38.0494,50.375 38.69,50.5313 Q39.3463,50.6875 39.9088,50.9844 L39.9088,53.7031 Q39.2838,53.125 38.69,52.8594 Q38.0963,52.5781 37.4713,52.5781 Q36.1275,52.5781 35.44,53.6563 Q34.7525,54.7188 34.7525,56.8125 Q34.7525,58.9063 35.44,59.9844 Q36.1275,61.0469 37.4713,61.0469 Q38.0963,61.0469 38.69,60.7813 Q39.2838,60.5 39.9088,59.9219 L39.9088,62.6406 Z " fill="#000000"/><text fill="#000000" font-family="sans-serif" font-size="14" lengthAdjust="spacing" textLength="142.1123" x="50.94" y="61.8467">SubscriptionHandler</text><line style="stroke:#181818;stroke-width:0.5;" x1="22.94" x2="195.0523" y1="73" y2="73"/><line style="stroke:#181818;stroke-width:0.5;" x1="22.94" x2="195.0523" y1="81" y2="81"/></g><!--class WeatherService--><g class="entity" data-entity="WeatherService" data-source-line="7" data-uid="ent0006" id="entity_WeatherService"><rect fill="#F1F1F1" height="48" rx="2.5" ry="2.5" style="stroke:#181818;stroke-width:0.5;" width="143.5078" x="639.25" y="149"/><ellipse cx="654.25" cy="165" fill="#ADD1B2" rx="11" ry="11" style="stroke:#181818;stroke-width:1;"/><path d="M657.2188,170.6406 Q656.6406,170.9375 656,171.0781 Q655.3594,171.2344 654.6563,171.2344 Q652.1563,171.2344 650.8281,169.5938 Q649.5156,167.9375 649.5156,164.8125 Q649.5156,161.6875 650.8281,160.0313 Q652.1563,158.375 654.6563,158.375 Q655.3594,158.375 656,158.5313 Q656.6563,158.6875 657.2188,158.9844 L657.2188,161.7031 Q656.5938,161.125 656,160.8594 Q655.4063,160.5781 654.7813,160.5781 Q653.4375,160.5781 652.75,161.6563 Q652.0625,162.7188 652.0625,164.8125 Q652.0625,166.9063 652.75,167.9844 Q653.4375,169.0469 654.7813,169.0469 Q655.4063,169.0469 656,168.7813 Q656.5938,168.5 657.2188,167.9219 L657.2188,170.6406 Z " fill="#000000"/><text fill="#000000" font-family="sans-serif" font-size="14" lengthAdjust="spacing" textLength="111.5078" x="668.25" y="169.8467">WeatherService</text><line style="stroke:#181818;stroke-width:0.5;" x1="640.25" x2="781.7578" y1="181" y2="181"/><line style="stroke:#181818;stroke-width:0.5;" x1="640.25" x2="781.7578" y1="189" y2="189"/></g><!--class SubscriptionService--><g class="entity" data-entity="SubscriptionService" data-source-line="8" data-uid="ent0007" id="entity_SubscriptionService"><rect fill="#F1F1F1" height="48" rx="2.5" ry="2.5" style="stroke:#181818;stroke-width:0.5;" width="170.7285" x="433.64" y="149"/><ellipse cx="448.64" cy="165" fill="#ADD1B2" rx="11" ry="11" style="stroke:#181818;stroke-width:1;"/><path d="M451.6088,170.6406 Q451.0306,170.9375 450.39,171.0781 Q449.7494,171.2344 449.0463,171.2344 Q446.5463,171.2344 445.2181,169.5938 Q443.9056,167.9375 443.9056,164.8125 Q443.9056,161.6875 445.2181,160.0313 Q446.5463,158.375 449.0463,158.375 Q449.7494,158.375 450.39,158.5313 Q451.0463,158.6875 451.6088,158.9844 L451.6088,161.7031 Q450.9838,161.125 450.39,160.8594 Q449.7963,160.5781 449.1713,160.5781 Q447.8275,160.5781 447.14,161.6563 Q446.4525,162.7188 446.4525,164.8125 Q446.4525,166.9063 447.14,167.9844 Q447.8275,169.0469 449.1713,169.0469 Q449.7963,169.0469 450.39,168.7813 Q450.9838,168.5 451.6088,167.9219 L451.6088,170.6406 Z " fill="#000000"/><text fill="#000000" font-family="sans-serif" font-size="14" lengthAdjust="spacing" textLength="138.7285" x="462.64" y="169.8467">SubscriptionService</text><line style="stroke:#181818;stroke-width:0.5;" x1="434.64" x2="603.3685" y1="181" y2="181"/><line style="stroke:#181818;stroke-width:0.5;" x1="434.64" x2="603.3685" y1="189" y2="189"/></g><!--class Scheduler--><g class="entity" data-entity="Scheduler" data-source-line="9" data-uid="ent0008" id="entity_Scheduler"><rect fill="#F1F1F1" height="48" rx="2.5" ry="2.5" style="stroke:#181818;stroke-width:0.5;" width="102.0889" x="659.96" y="41"/><ellipse cx="674.96" cy="57" fill="#ADD1B2" rx="11" ry="11" style="stroke:#181818;stroke-width:1;"/><path d="M677.9288,62.6406 Q677.3506,62.9375 676.71,63.0781 Q676.0694,63.2344 675.3663,63.2344 Q672.8663,63.2344 671.5381,61.5938 Q670.2256,59.9375 670.2256,56.8125 Q670.2256,53.6875 671.5381,52.0313 Q672.8663,50.375 675.3663,50.375 Q676.0694,50.375 676.71,50.5313 Q677.3663,50.6875 677.9288,50.9844 L677.9288,53.7031 Q677.3038,53.125 676.71,52.8594 Q676.1163,52.5781 675.4913,52.5781 Q674.1475,52.5781 673.46,53.6563 Q672.7725,54.7188 672.7725,56.8125 Q672.7725,58.9063 673.46,59.9844 Q674.1475,61.0469 675.4913,61.0469 Q676.1163,61.0469 676.71,60.7813 Q677.3038,60.5 677.9288,59.9219 L677.9288,62.6406 Z " fill="#000000"/><text fill="#000000" font-family="sans-serif" font-size="14" lengthAdjust="spacing" textLength="70.0889" x="688.96" y="61.8467">Scheduler</text><line style="stroke:#181818;stroke-width:0.5;" x1="660.96" x2="761.0489" y1="73" y2="73"/><line style="stroke:#181818;stroke-width:0.5;" x1="660.96" x2="761.0489" y1="81" y2="81"/></g><!--class WeatherData--><g class="entity" data-entity="WeatherData" data-source-line="13" data-uid="ent0010" id="entity_WeatherData"><rect fill="#F1F1F1" height="48" rx="2.5" ry="2.5" style="stroke:#181818;stroke-width:0.5;" width="125.1943" x="839.4" y="41"/><ellipse cx="854.4" cy="57" fill="#ADD1B2" rx="11" ry="11" style="stroke:#181818;stroke-width:1;"/><path d="M857.3688,62.6406 Q856.7906,62.9375 856.15,63.0781 Q855.5094,63.2344 854.8063,63.2344 Q852.3063,63.2344 850.9781,61.5938 Q849.6656,59.9375 849.6656,56.8125 Q849.6656,53.6875 850.9781,52.0313 Q852.3063,50.375 854.8063,50.375 Q855.5094,50.375 856.15,50.5313 Q856.8063,50.6875 857.3688,50.9844 L857.3688,53.7031 Q856.7438,53.125 856.15,52.8594 Q855.5563,52.5781 854.9313,52.5781 Q853.5875,52.5781 852.9,53.6563 Q852.2125,54.7188 852.2125,56.8125 Q852.2125,58.9063 852.9,59.9844 Q853.5875,61.0469 854.9313,61.0469 Q855.5563,61.0469 856.15,60.7813 Q856.7438,60.5 857.3688,59.9219 L857.3688,62.6406 Z " fill="#000000"/><text fill="#000000" font-family="sans-serif" font-size="14" lengthAdjust="spacing" textLength="93.1943" x="868.4" y="61.8467">WeatherData</text><line style="stroke:#181818;stroke-width:0.5;" x1="840.4" x2="963.5943" y1="73" y2="73"/><line style="stroke:#181818;stroke-width:0.5;" x1="840.4" x2="963.5943" y1="81" y2="81"/></g><!--class Subscription--><g class="entity" data-entity="Subscription" data-source-line="14" data-uid="ent0011" id="entity_Subscription"><rect fill="#F1F1F1" height="48" rx="2.5" ry="2.5" style="stroke:#181818;stroke-width:0.5;" width="118.9873" x="999.51" y="41"/><ellipse cx="1014.51" cy="57" fill="#ADD1B2" rx="11" ry="11" style="stroke:#181818;stroke-width:1;"/><path d="M1017.4788,62.6406 Q1016.9006,62.9375 1016.26,63.0781 Q1015.6194,63.2344 1014.9163,63.2344 Q1012.4163,63.2344 1011.0881,61.5938 Q1009.7756,59.9375 1009.7756,56.8125 Q1009.7756,53.6875 1011.0881,52.0313 Q1012.4163,50.375 1014.9163,50.375 Q1015.6194,50.375 1016.26,50.5313 Q1016.9163,50.6875 1017.4788,50.9844 L1017.4788,53.7031 Q1016.8538,53.125 1016.26,52.8594 Q1015.6663,52.5781 1015.0413,52.5781 Q1013.6975,52.5781 1013.01,53.6563 Q1012.3225,54.7188 1012.3225,56.8125 Q1012.3225,58.9063 1013.01,59.9844 Q1013.6975,61.0469 1015.0413,61.0469 Q1015.6663,61.0469 1016.26,60.7813 Q1016.8538,60.5 1017.4788,59.9219 L1017.4788,62.6406 Z " fill="#000000"/><text fill="#000000" font-family="sans-serif" font-size="14" lengthAdjust="spacing" textLength="86.9873" x="1028.51" y="61.8467">Subscription</text><line style="stroke:#181818;stroke-width:0.5;" x1="1000.51" x2="1117.4973" y1="73" y2="73"/><line style="stroke:#181818;stroke-width:0.5;" x1="1000.51" x2="1117.4973" y1="81" y2="81"/></g><!--class OpenWeatherAdapter--><g class="entity" data-entity="OpenWeatherAdapter" data-source-line="18" data-uid="ent0013" id="entity_OpenWeatherAdapter"><rect fill="#F1F1F1" height="48" rx="2.5" ry="2.5" style="stroke:#181818;stroke-width:0.5;" width="184.9473" x="562.53" y="272"/><ellipse cx="577.53" cy="288" fill="#ADD1B2" rx="11" ry="11" style="stroke:#181818;stroke-width:1;"/><path d="M580.4988,293.6406 Q579.9206,293.9375 579.28,294.0781 Q578.6394,294.2344 577.9363,294.2344 Q575.4363,294.2344 574.1081,292.5938 Q572.7956,290.9375 572.7956,287.8125 Q572.7956,284.6875 574.1081,283.0313 Q575.4363,281.375 577.9363,281.375 Q578.6394,281.375 579.28,281.5313 Q579.9363,281.6875 580.4988,281.9844 L580.4988,284.7031 Q579.8738,284.125 579.28,283.8594 Q578.6863,283.5781 578.0613,283.5781 Q576.7175,283.5781 576.03,284.6563 Q575.3425,285.7188 575.3425,287.8125 Q575.3425,289.9063 576.03,290.9844 Q576.7175,292.0469 578.0613,292.0469 Q578.6863,292.0469 579.28,291.7813 Q579.8738,291.5 580.4988,290.9219 L580.4988,293.6406 Z " fill="#000000"/><text fill="#000000" font-family="sans-serif" font-size="14" lengthAdjust="spacing" textLength="152.9473" x="591.53" y="292.8467">OpenWeatherAdapter</text><line style="stroke:#181818;stroke-width:0.5;" x1="563.53" x2="746.4773" y1="304" y2="304"/><line style="stroke:#181818;stroke-width:0.5;" x1="563.53" x2="746.4773" y1="312" y2="312"/></g><!--class WeatherAPIAdapter--><g class="entity" data-entity="WeatherAPIAdapter" data-source-line="19" data-uid="ent0014" id="entity_WeatherAPIAdapter"><rect fill="#F1F1F1" height="48" rx="2.5" ry="2.5" style="stroke:#181818;stroke-width:0.5;" width="169.7031" x="944.15" y="272"/><ellipse cx="959.15" cy="288" fill="#ADD1B2" rx="11" ry="11" style="stroke:#181818;stroke-width:1;"/><path d="M962.1188,293.6406 Q961.5406,293.9375 960.9,294.0781 Q960.2594,294.2344 959.5563,294.2344 Q957.0563,294.2344 955.7281,292.5938 Q954.4156,290.9375 954.4156,287.8125 Q954.4156,284.6875 955.7281,283.0313 Q957.0563,281.375 959.5563,281.375 Q960.2594,281.375 960.9,281.5313 Q961.5563,281.6875 962.1188,281.9844 L962.1188,284.7031 Q961.4938,284.125 960.9,283.8594 Q960.3063,283.5781 959.6813,283.5781 Q958.3375,283.5781 957.65,284.6563 Q956.9625,285.7188 956.9625,287.8125 Q956.9625,289.9063 957.65,290.9844 Q958.3375,292.0469 959.6813,292.0469 Q960.3063,292.0469 960.9,291.7813 Q961.4938,291.5 962.1188,290.9219 L962.1188,293.6406 Z " fill="#000000"/><text fill="#000000" font-family="sans-serif" font-size="14" lengthAdjust="spacing" textLength="137.7031" x="973.15" y="292.8467">WeatherAPIAdapter</text><line style="stroke:#181818;stroke-width:0.5;" x1="945.15" x2="1112.8531" y1="304" y2="304"/><line style="stroke:#181818;stroke-width:0.5;" x1="945.15" x2="1112.8531" y1="312" y2="312"/></g><!--class RedisCache--><g class="entity" data-entity="RedisCache" data-source-line="20" data-uid="ent0015" id="entity_RedisCache"><rect fill="#F1F1F1" height="48" rx="2.5" ry="2.5" style="stroke:#181818;stroke-width:0.5;" width="113.9492" x="414.03" y="272"/><ellipse cx="429.03" cy="288" fill="#ADD1B2" rx="11" ry="11" style="stroke:#181818;stroke-width:1;"/><path d="M431.9988,293.6406 Q431.4206,293.9375 430.78,294.0781 Q430.1394,294.2344 429.4363,294.2344 Q426.9363,294.2344 425.6081,292.5938 Q424.2956,290.9375 424.2956,287.8125 Q424.2956,284.6875 425.6081,283.0313 Q426.9363,281.375 429.4363,281.375 Q430.1394,281.375 430.78,281.5313 Q431.4363,281.6875 431.9988,281.9844 L431.9988,284.7031 Q431.3738,284.125 430.78,283.8594 Q430.1863,283.5781 429.5613,283.5781 Q428.2175,283.5781 427.53,284.6563 Q426.8425,285.7188 426.8425,287.8125 Q426.8425,289.9063 427.53,290.9844 Q428.2175,292.0469 429.5613,292.0469 Q430.1863,292.0469 430.78,291.7813 Q431.3738,291.5 431.9988,290.9219 L431.9988,293.6406 Z " fill="#000000"/><text fill="#000000" font-family="sans-serif" font-size="14" lengthAdjust="spacing" textLength="81.9492" x="443.03" y="292.8467">RedisCache</text><line style="stroke:#181818;stroke-width:0.5;" x1="415.03" x2="526.9792" y1="304" y2="304"/><line style="stroke:#181818;stroke-width:0.5;" x1="415.03" x2="526.9792" y1="312" y2="312"/></g><!--class MailerService--><g class="entity" data-entity="MailerService" data-source-line="21" data-uid="ent0016" id="entity_MailerService"><rect fill="#F1F1F1" height="48" rx="2.5" ry="2.5" style="stroke:#181818;stroke-width:0.5;" width="126.5479" x="782.73" y="272"/><ellipse cx="797.73" cy="288" fill="#ADD1B2" rx="11" ry="11" style="stroke:#181818;stroke-width:1;"/><path d="M800.6988,293.6406 Q800.1206,293.9375 799.48,294.0781 Q798.8394,294.2344 798.1363,294.2344 Q795.6363,294.2344 794.3081,292.5938 Q792.9956,290.9375 792.9956,287.8125 Q792.9956,284.6875 794.3081,283.0313 Q795.6363,281.375 798.1363,281.375 Q798.8394,281.375 799.48,281.5313 Q800.1363,281.6875 800.6988,281.9844 L800.6988,284.7031 Q800.0738,284.125 799.48,283.8594 Q798.8863,283.5781 798.2613,283.5781 Q796.9175,283.5781 796.23,284.6563 Q795.5425,285.7188 795.5425,287.8125 Q795.5425,289.9063 796.23,290.9844 Q796.9175,292.0469 798.2613,292.0469 Q798.8863,292.0469 799.48,291.7813 Q800.0738,291.5 800.6988,290.9219 L800.6988,293.6406 Z " fill="#000000"/><text fill="#000000" font-family="sans-serif" font-size="14" lengthAdjust="spacing" textLength="94.5479" x="811.73" y="292.8467">MailerService</text><line style="stroke:#181818;stroke-width:0.5;" x1="783.73" x2="908.2779" y1="304" y2="304"/><line style="stroke:#181818;stroke-width:0.5;" x1="783.73" x2="908.2779" y1="312" y2="312"/></g><!--class SubscriptionRepo--><g class="entity" data-entity="SubscriptionRepo" data-source-line="25" data-uid="ent0018" id="entity_SubscriptionRepo"><rect fill="#F1F1F1" height="48" rx="2.5" ry="2.5" style="stroke:#181818;stroke-width:0.5;" width="154.7803" x="203.61" y="272"/><ellipse cx="218.61" cy="288" fill="#ADD1B2" rx="11" ry="11" style="stroke:#181818;stroke-width:1;"/><path d="M221.5788,293.6406 Q221.0006,293.9375 220.36,294.0781 Q219.7194,294.2344 219.0163,294.2344 Q216.5163,294.2344 215.1881,292.5938 Q213.8756,290.9375 213.8756,287.8125 Q213.8756,284.6875 215.1881,283.0313 Q216.5163,281.375 219.0163,281.375 Q219.7194,281.375 220.36,281.5313 Q221.0163,281.6875 221.5788,281.9844 L221.5788,284.7031 Q220.9538,284.125 220.36,283.8594 Q219.7663,283.5781 219.1413,283.5781 Q217.7975,283.5781 217.11,284.6563 Q216.4225,285.7188 216.4225,287.8125 Q216.4225,289.9063 217.11,290.9844 Q217.7975,292.0469 219.1413,292.0469 Q219.7663,292.0469 220.36,291.7813 Q220.9538,291.5 221.5788,290.9219 L221.5788,293.6406 Z " fill="#000000"/><text fill="#000000" font-family="sans-serif" font-size="14" lengthAdjust="spacing" textLength="122.7803" x="232.61" y="292.8467">SubscriptionRepo</text><line style="stroke:#181818;stroke-width:0.5;" x1="204.61" x2="357.3903" y1="304" y2="304"/><line style="stroke:#181818;stroke-width:0.5;" x1="204.61" x2="357.3903" y1="312" y2="312"/></g><!--link WeatherHandler to WeatherService--><g class="link" data-entity-1="WeatherHandler" data-entity-2="WeatherService" data-source-line="28" data-uid="lnk19" id="link_WeatherHandler_WeatherService"><path codeLine="28" d="M354.77,89.47 C374.16,97.88 396.79,106.8 418,113 C506.37,138.83 532.03,129.47 622,149 C627.61,150.22 627.5747,150.1539 633.3847,151.5439" fill="none" id="WeatherHandler-to-WeatherService" style="stroke:#181818;stroke-width:1;"/><polygon fill="#181818" points="639.22,152.94,631.3977,146.9557,634.3572,151.7766,629.5363,154.7361,639.22,152.94" style="stroke:#181818;stroke-width:1;"/></g><!--link SubscriptionHandler to SubscriptionService--><g class="link" data-entity-1="SubscriptionHandler" data-entity-2="SubscriptionService" data-source-line="29" data-uid="lnk20" id="link_SubscriptionHandler_SubscriptionService"><path codeLine="29" d="M155.15,89.41 C173.15,97.81 194.19,106.74 214,113 C286.38,135.87 365.4378,150.5203 427.2878,159.9003" fill="none" id="SubscriptionHandler-to-SubscriptionService" style="stroke:#181818;stroke-width:1;"/><polygon fill="#181818" points="433.22,160.8,424.9215,155.4957,428.2765,160.0503,423.722,163.4053,433.22,160.8" style="stroke:#181818;stroke-width:1;"/></g><!--link WeatherService to OpenWeatherAdapter--><g class="link" data-entity-1="WeatherService" data-entity-2="OpenWeatherAdapter" data-source-line="31" data-uid="lnk21" id="link_WeatherService_OpenWeatherAdapter"><path codeLine="31" d="M700.2,197.33 C690.29,218.76 678.1913,244.8955 668.2813,266.2955" fill="none" id="WeatherService-to-OpenWeatherAdapter" style="stroke:#181818;stroke-width:1;"/><polygon fill="#181818" points="665.76,271.74,673.1716,265.254,667.8611,267.2029,665.9122,261.8923,665.76,271.74" style="stroke:#181818;stroke-width:1;"/></g><!--link WeatherService to WeatherAPIAdapter--><g class="link" data-entity-1="WeatherService" data-entity-2="WeatherAPIAdapter" data-source-line="32" data-uid="lnk22" id="link_WeatherService_WeatherAPIAdapter"><path codeLine="32" d="M782.97,186.22 C825.92,195 880.9,208.86 927,229 C952.71,240.23 974.364,254.0898 993.924,268.1998" fill="none" id="WeatherService-to-WeatherAPIAdapter" style="stroke:#181818;stroke-width:1;"/><polygon fill="#181818" points="998.79,271.71,993.8311,263.2006,994.735,268.7848,989.1508,269.6887,998.79,271.71" style="stroke:#181818;stroke-width:1;"/></g><!--link WeatherService to RedisCache--><g class="link" data-entity-1="WeatherService" data-entity-2="RedisCache" data-source-line="33" data-uid="lnk23" id="link_WeatherService_RedisCache"><path codeLine="33" d="M674.26,197.47 C658.72,206.3 640.06,215.52 622,221 C589.08,230.99 576.47,215.1 545,229 C523.43,238.53 507.8013,252.3342 494.1713,267.2242" fill="none" id="WeatherService-to-RedisCache" style="stroke:#181818;stroke-width:1;"/><polygon fill="#181818" points="490.12,271.65,499.1474,267.7122,493.496,267.9619,493.2464,262.3105,490.12,271.65" style="stroke:#181818;stroke-width:1;"/></g><!--link Scheduler to WeatherService--><g class="link" data-entity-1="Scheduler" data-entity-2="WeatherService" data-source-line="35" data-uid="lnk24" id="link_Scheduler_WeatherService"><path codeLine="35" d="M711,89.26 C711,106.94 711,125.13 711,142.79" fill="none" id="Scheduler-to-WeatherService" style="stroke:#181818;stroke-width:1;"/><polygon fill="#181818" points="711,148.79,715,139.79,711,143.79,707,139.79,711,148.79" style="stroke:#181818;stroke-width:1;"/></g><!--link Scheduler to MailerService--><g class="link" data-entity-1="Scheduler" data-entity-2="MailerService" data-source-line="36" data-uid="lnk25" id="link_Scheduler_MailerService"><path codeLine="36" d="M743.37,89.3 C762.27,104.41 785.23,125.59 800,149 C824.67,188.11 836.0039,235.5937 841.4039,265.7937" fill="none" id="Scheduler-to-MailerService" style="stroke:#181818;stroke-width:1;"/><polygon fill="#181818" points="842.46,271.7,844.8134,262.1364,841.5799,266.7781,836.9383,263.5446,842.46,271.7" style="stroke:#181818;stroke-width:1;"/></g><!--link Scheduler to SubscriptionService--><g class="link" data-entity-1="Scheduler" data-entity-2="SubscriptionService" data-source-line="37" data-uid="lnk26" id="link_Scheduler_SubscriptionService"><path codeLine="37" d="M668.86,89.26 C636.96,106.87 598.583,128.0707 566.623,145.7107" fill="none" id="Scheduler-to-SubscriptionService" style="stroke:#181818;stroke-width:1;"/><polygon fill="#181818" points="561.37,148.61,571.1824,147.763,565.7475,146.1939,567.3166,140.759,561.37,148.61" style="stroke:#181818;stroke-width:1;"/></g><!--link SubscriptionService to SubscriptionRepo--><g class="link" data-entity-1="SubscriptionService" data-entity-2="SubscriptionRepo" data-source-line="39" data-uid="lnk27" id="link_SubscriptionService_SubscriptionRepo"><path codeLine="39" d="M464.91,197.38 C443.84,206.8 419.6,218.02 398,229 C371.8,242.31 348.2413,255.5016 325.7913,268.5116" fill="none" id="SubscriptionService-to-SubscriptionRepo" style="stroke:#181818;stroke-width:1;"/><polygon fill="#181818" points="320.6,271.52,330.3925,270.4683,324.9261,269.013,326.3813,263.5465,320.6,271.52" style="stroke:#181818;stroke-width:1;"/></g><!--link SubscriptionService to MailerService--><g class="link" data-entity-1="SubscriptionService" data-entity-2="MailerService" data-source-line="40" data-uid="lnk28" id="link_SubscriptionService_MailerService"><path codeLine="40" d="M560.81,197.37 C579.04,206.41 601.01,215.82 622,221 C652.9,228.63 735.32,217.5 765,229 C788.34,238.05 805.8144,252.2703 820.8744,267.3803" fill="none" id="SubscriptionService-to-MailerService" style="stroke:#181818;stroke-width:1;"/><polygon fill="#181818" points="825.11,271.63,821.5897,262.4318,821.5803,268.0886,815.9235,268.0792,825.11,271.63" style="stroke:#181818;stroke-width:1;"/></g><!--SRC=[TL6x3e904EplAoxq_e89aK8B8u72UZrMlOZ7vHusndyNY20BIxipEpipQq4zu8OooHrwD062RamYtq9ALOFtyemGxkZsOAeQtJWkuyKhfsr77x2F47QGIwsjjLfJAz6zj49MRO6fErPnhfyrJz2ST0O1M5soVZ1N1pwug49qE9KvMJG_gRG26oQPXt5-c2C5Ljhle7KwZewWwtzGOhrrU05FhawD5cYRRe4sBpURxRm-vWazZQjJqDsUnsHbMClO36dIW1W_ndec86s9OcmAPhWWzmMk4Sd5Bm00]--></g></svg>