<svg xmlns="http://www.w3.org/2000/svg" xmlns:xlink="http://www.w3.org/1999/xlink" contentStyleType="text/css" data-diagram-type="CLASS" height="343px" preserveAspectRatio="none" style="width:1141px;height:343px;background:#FFFFFF;" version="1.1" viewBox="0 0 1141 343" width="1141px" zoomAndPan="magnify"><defs/><g><!--cluster Presentation--><g class="cluster" data-entity="Presentation" data-source-line="1" data-uid="ent0002" id="cluster_Presentation"><path d="M8.5,6 L111.1709,6 A3.75,3.75 0 0 1 113.6709,8.5 L120.6709,28.2969 L391.5,28.2969 A2.5,2.5 0 0 1 394,30.7969 L394,102.5 A2.5,2.5 0 0 1 391.5,105 L8.5,105 A2.5,2.5 0 0 1 6,102.5 L6,8.5 A2.5,2.5 0 0 1 8.5,6" fill="none" style="stroke:#000000;stroke-width:1.5;"/><line style="stroke:#000000;stroke-width:1.5;" x1="6" x2="120.6709" y1="28.2969" y2="28.2969"/><text fill="#000000" font-family="sans-serif" font-size="14" font-weight="bold" lengthAdjust="spacing" textLength="101.6709" x="10" y="20.9951">Presentation</text></g><!--cluster Application--><g class="cluster" data-entity="Application" data-source-line="6" data-uid="ent0005" id="cluster_Application"><path d="M420.5,6 L510.7979,6 A3.75,3.75 0 0 1 513.2979,8.5 L520.2979,28.2969 L796.5,28.2969 A2.5,2.5 0 0 1 799,30.7969 L799,210.5 A2.5,2.5 0 0 1 796.5,213 L420.5,213 A2.5,2.5 0 0 1 418,210.5 L418,8.5 A2.5,2.5 0 0 1 420.5,6" fill="none" style="stroke:#000000;stroke-width:1.5;"/><line style="stroke:#000000;stroke-width:1.5;" x1="418" x2="520.2979" y1="28.2969" y2="28.2969"/><text fill="#000000" font-family="sans-serif" font-size="14" font-weight="bold" lengthAdjust="spacing" textLength="89.2979" x="422" y="20.9951">Application</text></g><!--cluster Domain--><g class="cluster" data-entity="Domain" data-source-line="12" data-uid="ent0009" id="cluster_Domain"><path d="M825.5,6 L886.54,6 A3.75,3.75 0 0 1 889.04,8.5 L896.04,28.2969 L1131.5,28.2969 A2.5,2.5 0 0 1 1134,30.7969 L1134,102.5 A2.5,2.5 0 0 1 1131.5,105 L825.5,105 A2.5,2.5 0 0 1 823,102.5 L823,8.5 A2.5,2.5 0 0 1 825.5,6" fill="none" style="stroke:#000000;stroke-width:1.5;"/><line style="stroke:#000000;stroke-width:1.5;" x1="823" x2="896.04" y1="28.2969" y2="28.2969"/><text fill="#000000" font-family="sans-serif" font-size="14" font-weight="bold" lengthAdjust="spacing" textLength="60.04" x="827" y="20.9951">Domain</text></g><!--cluster Infrastructure--><g class="cluster" data-entity="Infrastructure" data-source-line="17" data-uid="ent0012" id="cluster_Infrastructure"><path d="M39.5,237 L151.3721,237 A3.75,3.75 0 0 1 153.8721,239.5 L160.8721,259.2969 L956.5,259.2969 A2.5,2.5 0 0 1 959,261.7969 L959,333.5 A2.5,2.5 0 0 1 956.5,336 L39.5,336 A2.5,2.5 0 0 1 37,333.5 L37,239.5 A2.5,2.5 0 0 1 39.5,237" fill="none" style="stroke:#000000;stroke-width:1.5;"/><line style="stroke:#000000;stroke-width:1.5;" x1="37" x2="160.8721" y1="259.2969" y2="259.2969"/><text fill="#000000" font-family="sans-serif" font-size="14" font-weight="bold" lengthAdjust="spacing" textLength="110.8721" x="41" y="251.9951">Infrastructure</text></g><!--class WeatherHandler--><g class="entity" data-entity="WeatherHandler" data-source-line="2" data-uid="ent0003" id="entity_WeatherHandler"><rect fill="#F1F1F1" height="48" rx="2.5" ry="2.5" style="stroke:#181818;stroke-width:0.5;" width="146.8916" x="21.55" y="41"/><ellipse cx="36.55" cy="57" fill="#ADD1B2" rx="11" ry="11" style="stroke:#181818;stroke-width:1;"/><path d="M39.5188,62.6406 Q38.9406,62.9375 38.3,63.0781 Q37.6594,63.2344 36.9563,63.2344 Q34.4563,63.2344 33.1281,61.5938 Q31.8156,59.9375 31.8156,56.8125 Q31.8156,53.6875 33.1281,52.0313 Q34.4563,50.375 36.9563,50.375 Q37.6594,50.375 38.3,50.5313 Q38.9563,50.6875 39.5188,50.9844 L39.5188,53.7031 Q38.8938,53.125 38.3,52.8594 Q37.7063,52.5781 37.0813,52.5781 Q35.7375,52.5781 35.05,53.6563 Q34.3625,54.7188 34.3625,56.8125 Q34.3625,58.9063 35.05,59.9844 Q35.7375,61.0469 37.0813,61.0469 Q37.7063,61.0469 38.3,60.7813 Q38.8938,60.5 39.5188,59.9219 L39.5188,62.6406 Z " fill="#000000"/><text fill="#000000" font-family="sans-serif" font-size="14" lengthAdjust="spacing" textLength="114.8916" x="50.55" y="61.8467">WeatherHandler</text><line style="stroke:#181818;stroke-width:0.5;" x1="22.55" x2="167.4416" y1="73" y2="73"/><line style="stroke:#181818;stroke-width:0.5;" x1="22.55" x2="167.4416" y1="81" y2="81"/></g><!--class SubscriptionHandler--><g class="entity" data-entity="SubscriptionHandler" data-source-line="3" data-uid="ent0004" id="entity_SubscriptionHandler"><rect fill="#F1F1F1" height="48" rx="2.5" ry="2.5" style="stroke:#181818;stroke-width:0.5;" width="174.1123" x="203.94" y="41"/><ellipse cx="218.94" cy="57" fill="#ADD1B2" rx="11" ry="11" style="stroke:#181818;stroke-width:1;"/><path d="M221.9088,62.6406 Q221.3306,62.9375 220.69,63.0781 Q220.0494,63.2344 219.3463,63.2344 Q216.8463,63.2344 215.5181,61.5938 Q214.2056,59.9375 214.2056,56.8125 Q214.2056,53.6875 215.5181,52.0313 Q216.8463,50.375 219.3463,50.375 Q220.0494,50.375 220.69,50.5313 Q221.3463,50.6875 221.9088,50.9844 L221.9088,53.7031 Q221.2838,53.125 220.69,52.8594 Q220.0963,52.5781 219.4713,52.5781 Q218.1275,52.5781 217.44,53.6563 Q216.7525,54.7188 216.7525,56.8125 Q216.7525,58.9063 217.44,59.9844 Q218.1275,61.0469 219.4713,61.0469 Q220.0963,61.0469 220.69,60.7813 Q221.2838,60.5 221.9088,59.9219 L221.9088,62.6406 Z " fill="#000000"/><text fill="#000000" font-family="sans-serif" font-size="14" lengthAdjust="spacing" textLength="142.1123" x="232.94" y="61.8467">SubscriptionHandler</text><line style="stroke:#181818;stroke-width:0.5;" x1="204.94" x2="377.0523" y1="73" y2="73"/><line style="stroke:#181818;stroke-width:0.5;" x1="204.94" x2="377.0523" y1="81" y2="81"/></g><!--class WeatherService--><g class="entity" data-entity="WeatherService" data-source-line="7" data-uid="ent0006" id="entity_WeatherService"><rect fill="#F1F1F1" height="48" rx="2.5" ry="2.5" style="stroke:#181818;stroke-width:0.5;" width="143.5078" x="434.25" y="149"/><ellipse cx="449.25" cy="165" fill="#ADD1B2" rx="11" ry="11" style="stroke:#181818;stroke-width:1;"/><path d="M452.2188,170.6406 Q451.6406,170.9375 451,171.0781 Q450.3594,171.2344 449.6563,171.2344 Q447.1563,171.2344 445.8281,169.5938 Q444.5156,167.9375 444.5156,164.8125 Q444.5156,161.6875 445.8281,160.0313 Q447.1563,158.375 449.6563,158.375 Q450.3594,158.375 451,158.5313 Q451.6563,158.6875 452.2188,158.9844 L452.2188,161.7031 Q451.5938,161.125 451,160.8594 Q450.4063,160.5781 449.7813,160.5781 Q448.4375,160.5781 447.75,161.6563 Q447.0625,162.7188 447.0625,164.8125 Q447.0625,166.9063 447.75,167.9844 Q448.4375,169.0469 449.7813,169.0469 Q450.4063,169.0469 451,168.7813 Q451.5938,168.5 452.2188,167.9219 L452.2188,170.6406 Z " fill="#000000"/><text fill="#000000" font-family="sans-serif" font-size="14" lengthAdjust="spacing" textLength="111.5078" x="463.25" y="169.8467">WeatherService</text><line style="stroke:#181818;stroke-width:0.5;" x1="435.25" x2="576.7578" y1="181" y2="181"/><line style="stroke:#181818;stroke-width:0.5;" x1="435.25" x2="576.7578" y1="189" y2="189"/></g><!--class SubscriptionService--><g class="entity" data-entity="SubscriptionService" data-source-line="8" data-uid="ent0007" id="entity_SubscriptionService"><rect fill="#F1F1F1" height="48" rx="2.5" ry="2.5" style="stroke:#181818;stroke-width:0.5;" width="170.7285" x="612.64" y="149"/><ellipse cx="627.64" cy="165" fill="#ADD1B2" rx="11" ry="11" style="stroke:#181818;stroke-width:1;"/><path d="M630.6088,170.6406 Q630.0306,170.9375 629.39,171.0781 Q628.7494,171.2344 628.0463,171.2344 Q625.5463,171.2344 624.2181,169.5938 Q622.9056,167.9375 622.9056,164.8125 Q622.9056,161.6875 624.2181,160.0313 Q625.5463,158.375 628.0463,158.375 Q628.7494,158.375 629.39,158.5313 Q630.0463,158.6875 630.6088,158.9844 L630.6088,161.7031 Q629.9838,161.125 629.39,160.8594 Q628.7963,160.5781 628.1713,160.5781 Q626.8275,160.5781 626.14,161.6563 Q625.4525,162.7188 625.4525,164.8125 Q625.4525,166.9063 626.14,167.9844 Q626.8275,169.0469 628.1713,169.0469 Q628.7963,169.0469 629.39,168.7813 Q629.9838,168.5 630.6088,167.9219 L630.6088,170.6406 Z " fill="#000000"/><text fill="#000000" font-family="sans-serif" font-size="14" lengthAdjust="spacing" textLength="138.7285" x="641.64" y="169.8467">SubscriptionService</text><line style="stroke:#181818;stroke-width:0.5;" x1="613.64" x2="782.3685" y1="181" y2="181"/><line style="stroke:#181818;stroke-width:0.5;" x1="613.64" x2="782.3685" y1="189" y2="189"/></g><!--class Scheduler--><g class="entity" data-entity="Scheduler" data-source-line="9" data-uid="ent0008" id="entity_Scheduler"><rect fill="#F1F1F1" height="48" rx="2.5" ry="2.5" style="stroke:#181818;stroke-width:0.5;" width="102.0889" x="646.96" y="41"/><ellipse cx="661.96" cy="57" fill="#ADD1B2" rx="11" ry="11" style="stroke:#181818;stroke-width:1;"/><path d="M664.9288,62.6406 Q664.3506,62.9375 663.71,63.0781 Q663.0694,63.2344 662.3663,63.2344 Q659.8663,63.2344 658.5381,61.5938 Q657.2256,59.9375 657.2256,56.8125 Q657.2256,53.6875 658.5381,52.0313 Q659.8663,50.375 662.3663,50.375 Q663.0694,50.375 663.71,50.5313 Q664.3663,50.6875 664.9288,50.9844 L664.9288,53.7031 Q664.3038,53.125 663.71,52.8594 Q663.1163,52.5781 662.4913,52.5781 Q661.1475,52.5781 660.46,53.6563 Q659.7725,54.7188 659.7725,56.8125 Q659.7725,58.9063 660.46,59.9844 Q661.1475,61.0469 662.4913,61.0469 Q663.1163,61.0469 663.71,60.7813 Q664.3038,60.5 664.9288,59.9219 L664.9288,62.6406 Z " fill="#000000"/><text fill="#000000" font-family="sans-serif" font-size="14" lengthAdjust="spacing" textLength="70.0889" x="675.96" y="61.8467">Scheduler</text><line style="stroke:#181818;stroke-width:0.5;" x1="647.96" x2="748.0489" y1="73" y2="73"/><line style="stroke:#181818;stroke-width:0.5;" x1="647.96" x2="748.0489" y1="81" y2="81"/></g><!--class WeatherData--><g class="entity" data-entity="WeatherData" data-source-line="13" data-uid="ent0010" id="entity_WeatherData"><rect fill="#F1F1F1" height="48" rx="2.5" ry="2.5" style="stroke:#181818;stroke-width:0.5;" width="125.1943" x="839.4" y="41"/><ellipse cx="854.4" cy="57" fill="#ADD1B2" rx="11" ry="11" style="stroke:#181818;stroke-width:1;"/><path d="M857.3688,62.6406 Q856.7906,62.9375 856.15,63.0781 Q855.5094,63.2344 854.8063,63.2344 Q852.3063,63.2344 850.9781,61.5938 Q849.6656,59.9375 849.6656,56.8125 Q849.6656,53.6875 850.9781,52.0313 Q852.3063,50.375 854.8063,50.375 Q855.5094,50.375 856.15,50.5313 Q856.8063,50.6875 857.3688,50.9844 L857.3688,53.7031 Q856.7438,53.125 856.15,52.8594 Q855.5563,52.5781 854.9313,52.5781 Q853.5875,52.5781 852.9,53.6563 Q852.2125,54.7188 852.2125,56.8125 Q852.2125,58.9063 852.9,59.9844 Q853.5875,61.0469 854.9313,61.0469 Q855.5563,61.0469 856.15,60.7813 Q856.7438,60.5 857.3688,59.9219 L857.3688,62.6406 Z " fill="#000000"/><text fill="#000000" font-family="sans-serif" font-size="14" lengthAdjust="spacing" textLength="93.1943" x="868.4" y="61.8467">WeatherData</text><line style="stroke:#181818;stroke-width:0.5;" x1="840.4" x2="963.5943" y1="73" y2="73"/><line style="stroke:#181818;stroke-width:0.5;" x1="840.4" x2="963.5943" y1="81" y2="81"/></g><!--class Subscription--><g class="entity" data-entity="Subscription" data-source-line="14" data-uid="ent0011" id="entity_Subscription"><rect fill="#F1F1F1" height="48" rx="2.5" ry="2.5" style="stroke:#181818;stroke-width:0.5;" width="118.9873" x="999.51" y="41"/><ellipse cx="1014.51" cy="57" fill="#ADD1B2" rx="11" ry="11" style="stroke:#181818;stroke-width:1;"/><path d="M1017.4788,62.6406 Q1016.9006,62.9375 1016.26,63.0781 Q1015.6194,63.2344 1014.9163,63.2344 Q1012.4163,63.2344 1011.0881,61.5938 Q1009.7756,59.9375 1009.7756,56.8125 Q1009.7756,53.6875 1011.0881,52.0313 Q1012.4163,50.375 1014.9163,50.375 Q1015.6194,50.375 1016.26,50.5313 Q1016.9163,50.6875 1017.4788,50.9844 L1017.4788,53.7031 Q1016.8538,53.125 1016.26,52.8594 Q1015.6663,52.5781 1015.0413,52.5781 Q1013.6975,52.5781 1013.01,53.6563 Q1012.3225,54.7188 1012.3225,56.8125 Q1012.3225,58.9063 1013.01,59.9844 Q1013.6975,61.0469 1015.0413,61.0469 Q1015.6663,61.0469 1016.26,60.7813 Q1016.8538,60.5 1017.4788,59.9219 L1017.4788,62.6406 Z " fill="#000000"/><text fill="#000000" font-family="sans-serif" font-size="14" lengthAdjust="spacing" textLength="86.9873" x="1028.51" y="61.8467">Subscription</text><line style="stroke:#181818;stroke-width:0.5;" x1="1000.51" x2="1117.4973" y1="73" y2="73"/><line style="stroke:#181818;stroke-width:0.5;" x1="1000.51" x2="1117.4973" y1="81" y2="81"/></g><!--class OpenWeatherAdapter--><g class="entity" data-entity="OpenWeatherAdapter" data-source-line="18" data-uid="ent0013" id="entity_OpenWeatherAdapter"><rect fill="#F1F1F1" height="48" rx="2.5" ry="2.5" style="stroke:#181818;stroke-width:0.5;" width="184.9473" x="406.53" y="272"/><ellipse cx="421.53" cy="288" fill="#ADD1B2" rx="11" ry="11" style="stroke:#181818;stroke-width:1;"/><path d="M424.4988,293.6406 Q423.9206,293.9375 423.28,294.0781 Q422.6394,294.2344 421.9363,294.2344 Q419.4363,294.2344 418.1081,292.5938 Q416.7956,290.9375 416.7956,287.8125 Q416.7956,284.6875 418.1081,283.0313 Q419.4363,281.375 421.9363,281.375 Q422.6394,281.375 423.28,281.5313 Q423.9363,281.6875 424.4988,281.9844 L424.4988,284.7031 Q423.8738,284.125 423.28,283.8594 Q422.6863,283.5781 422.0613,283.5781 Q420.7175,283.5781 420.03,284.6563 Q419.3425,285.7188 419.3425,287.8125 Q419.3425,289.9063 420.03,290.9844 Q420.7175,292.0469 422.0613,292.0469 Q422.6863,292.0469 423.28,291.7813 Q423.8738,291.5 424.4988,290.9219 L424.4988,293.6406 Z " fill="#000000"/><text fill="#000000" font-family="sans-serif" font-size="14" lengthAdjust="spacing" textLength="152.9473" x="435.53" y="292.8467">OpenWeatherAdapter</text><line style="stroke:#181818;stroke-width:0.5;" x1="407.53" x2="590.4773" y1="304" y2="304"/><line style="stroke:#181818;stroke-width:0.5;" x1="407.53" x2="590.4773" y1="312" y2="312"/></g><!--class WeatherAPIAdapter--><g class="entity" data-entity="WeatherAPIAdapter" data-source-line="19" data-uid="ent0014" id="entity_WeatherAPIAdapter"><rect fill="#F1F1F1" height="48" rx="2.5" ry="2.5" style="stroke:#181818;stroke-width:0.5;" width="169.7031" x="53.15" y="272"/><ellipse cx="68.15" cy="288" fill="#ADD1B2" rx="11" ry="11" style="stroke:#181818;stroke-width:1;"/><path d="M71.1188,293.6406 Q70.5406,293.9375 69.9,294.0781 Q69.2594,294.2344 68.5563,294.2344 Q66.0563,294.2344 64.7281,292.5938 Q63.4156,290.9375 63.4156,287.8125 Q63.4156,284.6875 64.7281,283.0313 Q66.0563,281.375 68.5563,281.375 Q69.2594,281.375 69.9,281.5313 Q70.5563,281.6875 71.1188,281.9844 L71.1188,284.7031 Q70.4938,284.125 69.9,283.8594 Q69.3063,283.5781 68.6813,283.5781 Q67.3375,283.5781 66.65,284.6563 Q65.9625,285.7188 65.9625,287.8125 Q65.9625,289.9063 66.65,290.9844 Q67.3375,292.0469 68.6813,292.0469 Q69.3063,292.0469 69.9,291.7813 Q70.4938,291.5 71.1188,290.9219 L71.1188,293.6406 Z " fill="#000000"/><text fill="#000000" font-family="sans-serif" font-size="14" lengthAdjust="spacing" textLength="137.7031" x="82.15" y="292.8467">WeatherAPIAdapter</text><line style="stroke:#181818;stroke-width:0.5;" x1="54.15" x2="221.8531" y1="304" y2="304"/><line style="stroke:#181818;stroke-width:0.5;" x1="54.15" x2="221.8531" y1="312" y2="312"/></g><!--class RedisCache--><g class="entity" data-entity="RedisCache" data-source-line="20" data-uid="ent0015" id="entity_RedisCache"><rect fill="#F1F1F1" height="48" rx="2.5" ry="2.5" style="stroke:#181818;stroke-width:0.5;" width="113.9492" x="258.03" y="272"/><ellipse cx="273.03" cy="288" fill="#ADD1B2" rx="11" ry="11" style="stroke:#181818;stroke-width:1;"/><path d="M275.9988,293.6406 Q275.4206,293.9375 274.78,294.0781 Q274.1394,294.2344 273.4363,294.2344 Q270.9363,294.2344 269.6081,292.5938 Q268.2956,290.9375 268.2956,287.8125 Q268.2956,284.6875 269.6081,283.0313 Q270.9363,281.375 273.4363,281.375 Q274.1394,281.375 274.78,281.5313 Q275.4363,281.6875 275.9988,281.9844 L275.9988,284.7031 Q275.3738,284.125 274.78,283.8594 Q274.1863,283.5781 273.5613,283.5781 Q272.2175,283.5781 271.53,284.6563 Q270.8425,285.7188 270.8425,287.8125 Q270.8425,289.9063 271.53,290.9844 Q272.2175,292.0469 273.5613,292.0469 Q274.1863,292.0469 274.78,291.7813 Q275.3738,291.5 275.9988,290.9219 L275.9988,293.6406 Z " fill="#000000"/><text fill="#000000" font-family="sans-serif" font-size="14" lengthAdjust="spacing" textLength="81.9492" x="287.03" y="292.8467">RedisCache</text><line style="stroke:#181818;stroke-width:0.5;" x1="259.03" x2="370.9792" y1="304" y2="304"/><line style="stroke:#181818;stroke-width:0.5;" x1="259.03" x2="370.9792" y1="312" y2="312"/></g><!--class MailerService--><g class="entity" data-entity="MailerService" data-source-line="21" data-uid="ent0016" id="entity_MailerService"><rect fill="#F1F1F1" height="48" rx="2.5" ry="2.5" style="stroke:#181818;stroke-width:0.5;" width="126.5479" x="816.73" y="272"/><ellipse cx="831.73" cy="288" fill="#ADD1B2" rx="11" ry="11" style="stroke:#181818;stroke-width:1;"/><path d="M834.6988,293.6406 Q834.1206,293.9375 833.48,294.0781 Q832.8394,294.2344 832.1363,294.2344 Q829.6363,294.2344 828.3081,292.5938 Q826.9956,290.9375 826.9956,287.8125 Q826.9956,284.6875 828.3081,283.0313 Q829.6363,281.375 832.1363,281.375 Q832.8394,281.375 833.48,281.5313 Q834.1363,281.6875 834.6988,281.9844 L834.6988,284.7031 Q834.0738,284.125 833.48,283.8594 Q832.8863,283.5781 832.2613,283.5781 Q830.9175,283.5781 830.23,284.6563 Q829.5425,285.7188 829.5425,287.8125 Q829.5425,289.9063 830.23,290.9844 Q830.9175,292.0469 832.2613,292.0469 Q832.8863,292.0469 833.48,291.7813 Q834.0738,291.5 834.6988,290.9219 L834.6988,293.6406 Z " fill="#000000"/><text fill="#000000" font-family="sans-serif" font-size="14" lengthAdjust="spacing" textLength="94.5479" x="845.73" y="292.8467">MailerService</text><line style="stroke:#181818;stroke-width:0.5;" x1="817.73" x2="942.2779" y1="304" y2="304"/><line style="stroke:#181818;stroke-width:0.5;" x1="817.73" x2="942.2779" y1="312" y2="312"/></g><!--class SubscriptionRepo--><g class="entity" data-entity="SubscriptionRepo" data-source-line="22" data-uid="ent0017" id="entity_SubscriptionRepo"><rect fill="#F1F1F1" height="48" rx="2.5" ry="2.5" style="stroke:#181818;stroke-width:0.5;" width="154.7803" x="626.61" y="272"/><ellipse cx="641.61" cy="288" fill="#ADD1B2" rx="11" ry="11" style="stroke:#181818;stroke-width:1;"/><path d="M644.5788,293.6406 Q644.0006,293.9375 643.36,294.0781 Q642.7194,294.2344 642.0163,294.2344 Q639.5163,294.2344 638.1881,292.5938 Q636.8756,290.9375 636.8756,287.8125 Q636.8756,284.6875 638.1881,283.0313 Q639.5163,281.375 642.0163,281.375 Q642.7194,281.375 643.36,281.5313 Q644.0163,281.6875 644.5788,281.9844 L644.5788,284.7031 Q643.9538,284.125 643.36,283.8594 Q642.7663,283.5781 642.1413,283.5781 Q640.7975,283.5781 640.11,284.6563 Q639.4225,285.7188 639.4225,287.8125 Q639.4225,289.9063 640.11,290.9844 Q640.7975,292.0469 642.1413,292.0469 Q642.7663,292.0469 643.36,291.7813 Q643.9538,291.5 644.5788,290.9219 L644.5788,293.6406 Z " fill="#000000"/><text fill="#000000" font-family="sans-serif" font-size="14" lengthAdjust="spacing" textLength="122.7803" x="655.61" y="292.8467">SubscriptionRepo</text><line style="stroke:#181818;stroke-width:0.5;" x1="627.61" x2="780.3903" y1="304" y2="304"/><line style="stroke:#181818;stroke-width:0.5;" x1="627.61" x2="780.3903" y1="312" y2="312"/></g><!--link WeatherHandler to WeatherService--><g class="link" data-entity-1="WeatherHandler" data-entity-2="WeatherService" data-source-line="25" data-uid="lnk18" id="link_WeatherHandler_WeatherService"><path codeLine="25" d="M134.19,89.46 C149.85,97.97 168.33,106.96 186,113 C268.58,141.24 362.0833,156.1703 427.9633,164.1303" fill="none" id="WeatherHandler-to-WeatherService" style="stroke:#181818;stroke-width:1;"/><polygon fill="#181818" points="433.92,164.85,425.4648,159.7993,428.9561,164.2502,424.5052,167.7415,433.92,164.85" style="stroke:#181818;stroke-width:1;"/></g><!--link SubscriptionHandler to SubscriptionService--><g class="link" data-entity-1="SubscriptionHandler" data-entity-2="SubscriptionService" data-source-line="26" data-uid="lnk19" id="link_SubscriptionHandler_SubscriptionService"><path codeLine="26" d="M348.54,89.43 C370.09,97.63 394.94,106.43 418,113 C495.21,135 516.49,132.25 595,149 C600.64,150.2 600.5982,150.1796 606.4582,151.4596" fill="none" id="SubscriptionHandler-to-SubscriptionService" style="stroke:#181818;stroke-width:1;"/><polygon fill="#181818" points="612.32,152.74,604.3809,146.9116,607.4352,151.673,602.6737,154.7273,612.32,152.74" style="stroke:#181818;stroke-width:1;"/></g><!--link WeatherService to OpenWeatherAdapter--><g class="link" data-entity-1="WeatherService" data-entity-2="OpenWeatherAdapter" data-source-line="28" data-uid="lnk20" id="link_WeatherService_OpenWeatherAdapter"><path codeLine="28" d="M504.65,197.33 C503.41,218.76 501.9243,244.3499 500.6943,265.7499" fill="none" id="WeatherService-to-OpenWeatherAdapter" style="stroke:#181818;stroke-width:1;"/><polygon fill="#181818" points="500.35,271.74,504.8598,262.9844,500.6369,266.7482,496.873,262.5253,500.35,271.74" style="stroke:#181818;stroke-width:1;"/></g><!--link WeatherService to WeatherAPIAdapter--><g class="link" data-entity-1="WeatherService" data-entity-2="WeatherAPIAdapter" data-source-line="29" data-uid="lnk21" id="link_WeatherService_WeatherAPIAdapter"><path codeLine="29" d="M433.91,181.74 C379.4,189.29 303.54,203.49 241,229 C214.65,239.75 192.517,253.8073 172.787,268.1173" fill="none" id="WeatherService-to-WeatherAPIAdapter" style="stroke:#181818;stroke-width:1;"/><polygon fill="#181818" points="167.93,271.64,177.564,269.5939,171.9775,268.7044,172.867,263.1179,167.93,271.64" style="stroke:#181818;stroke-width:1;"/></g><!--link WeatherService to RedisCache--><g class="link" data-entity-1="WeatherService" data-entity-2="RedisCache" data-source-line="30" data-uid="lnk22" id="link_WeatherService_RedisCache"><path codeLine="30" d="M447.69,197.41 C428.36,206.2 407.16,217 389,229 C370.33,241.34 355.8438,253.9794 341.8638,267.5594" fill="none" id="WeatherService-to-RedisCache" style="stroke:#181818;stroke-width:1;"/><polygon fill="#181818" points="337.56,271.74,346.8027,268.3382,341.1465,268.2561,341.2286,262.5999,337.56,271.74" style="stroke:#181818;stroke-width:1;"/></g><!--link Scheduler to WeatherService--><g class="link" data-entity-1="Scheduler" data-entity-2="WeatherService" data-source-line="32" data-uid="lnk23" id="link_Scheduler_WeatherService"><path codeLine="32" d="M655.86,89.26 C623.96,106.87 585.583,128.0707 553.623,145.7107" fill="none" id="Scheduler-to-WeatherService" style="stroke:#181818;stroke-width:1;"/><polygon fill="#181818" points="548.37,148.61,558.1824,147.763,552.7475,146.1939,554.3166,140.759,548.37,148.61" style="stroke:#181818;stroke-width:1;"/></g><!--link Scheduler to MailerService--><g class="link" data-entity-1="Scheduler" data-entity-2="MailerService" data-source-line="33" data-uid="lnk24" id="link_Scheduler_MailerService"><path codeLine="33" d="M733.44,89.16 C754.83,104.36 781.6,125.7 801,149 C833.08,187.54 855.7358,235.6042 868.4358,265.9842" fill="none" id="Scheduler-to-MailerService" style="stroke:#181818;stroke-width:1;"/><polygon fill="#181818" points="870.75,271.52,870.9693,261.6736,868.8215,266.9069,863.5883,264.7591,870.75,271.52" style="stroke:#181818;stroke-width:1;"/></g><!--link Scheduler to SubscriptionService--><g class="link" data-entity-1="Scheduler" data-entity-2="SubscriptionService" data-source-line="34" data-uid="lnk25" id="link_Scheduler_SubscriptionService"><path codeLine="34" d="M698,89.26 C698,106.94 698,125.13 698,142.79" fill="none" id="Scheduler-to-SubscriptionService" style="stroke:#181818;stroke-width:1;"/><polygon fill="#181818" points="698,148.79,702,139.79,698,143.79,694,139.79,698,148.79" style="stroke:#181818;stroke-width:1;"/></g><!--link SubscriptionService to SubscriptionRepo--><g class="link" data-entity-1="SubscriptionService" data-entity-2="SubscriptionRepo" data-source-line="36" data-uid="lnk26" id="link_SubscriptionService_SubscriptionRepo"><path codeLine="36" d="M699.16,197.33 C700.22,218.76 701.4932,244.3473 702.5532,265.7473" fill="none" id="SubscriptionService-to-SubscriptionRepo" style="stroke:#181818;stroke-width:1;"/><polygon fill="#181818" points="702.85,271.74,706.3999,262.5531,702.6026,266.7461,698.4096,262.9489,702.85,271.74" style="stroke:#181818;stroke-width:1;"/></g><!--link SubscriptionService to MailerService--><g class="link" data-entity-1="SubscriptionService" data-entity-2="MailerService" data-source-line="37" data-uid="lnk27" id="link_SubscriptionService_MailerService"><path codeLine="37" d="M745.32,197.44 C762.62,206.61 782.09,217.65 799,229 C818.28,241.94 833.9809,254.5277 849.4109,267.7977" fill="none" id="SubscriptionService-to-MailerService" style="stroke:#181818;stroke-width:1;"/><polygon fill="#181818" points="853.96,271.71,849.7446,262.8089,850.1691,268.4498,844.5282,268.8743,853.96,271.71" style="stroke:#181818;stroke-width:1;"/></g><!--SRC=[VP7D3e8m48JlVOg6EwzWGkGW1oE1W-UrNQKHIzCVByPtLuWG2elNdTclErC3uWutv4bfqQ7su5Md4_vYd8iMdEDd1D-WFO2MBTffN8UB4rQPtZvgRyRCYCkCQPNOejLedqeWILjfea4PbloyUu2Yq3bu8BdHUg6l5fotGVXWSOuv6TG_L2R1-5dcSLmMIwL2gTmUlfTEeoEezd_G2atN7nKtpDDqjwo9A7kmKRMnU7Vm4Pa8rpeUOPebPTFFa3T7Ojn6h94fYE7AF1IuPOnU_000]--></g></svg>